<svg width="45" height="45" viewBox="0 0 45 45" fill="none" xmlns="http://www.w3.org/2000/svg">
<path d="M22.5 0.416656C10.5286 0.416656 0.416626 10.5286 0.416626 22.5C0.416626 34.4714 10.5286 44.5833 22.5 44.5833C34.4713 44.5833 44.5833 34.4714 44.5833 22.5C44.5833 10.5286 34.4713 0.416656 22.5 0.416656ZM22.5 11.4583C26.3138 11.4583 29.125 14.2673 29.125 18.0833C29.125 21.8993 26.3138 24.7083 22.5 24.7083C18.6884 24.7083 15.875 21.8993 15.875 18.0833C15.875 14.2673 18.6884 11.4583 22.5 11.4583ZM11.2242 33.0382C13.2051 30.1232 16.5088 28.1798 20.2916 28.1798H24.7083C28.4934 28.1798 31.7948 30.1232 33.7757 33.0382C30.9535 36.0592 26.9498 37.9583 22.5 37.9583C18.0502 37.9583 14.0465 36.0592 11.2242 33.0382Z" fill="#337443" fill-opacity="0.37"/>
</svg>
